<?xml version="1.0" encoding="utf-8"?>
<!-- Generator: Adobe Illustrator 25.4.1, SVG Export Plug-In . SVG Version: 6.00 Build 0)  -->
<svg version="1.1" id="Layer_1" xmlns="http://www.w3.org/2000/svg" xmlns:xlink="http://www.w3.org/1999/xlink" x="0px" y="0px"
	 viewBox="0 0 3200 2119" style="enable-background:new 0 0 3200 2119;" xml:space="preserve">
<style type="text/css">
	.st0{fill:#D1D8E0;}
</style>
<g>
	<path id="blob" class="st0" d="M2586.21,1740.72c-276.46,268.9-622.38,394.44-1037.77,376.62
		c-415.39-17.82-641.65-228.92-678.77-633.31s49.57-763,260.09-1075.84S1659.58-37.67,2087.67,9.14s687.31,279.87,777.68,699.22
		S2862.66,1471.82,2586.21,1740.72z"/>
	<path id="blob_00000140713526020423611440000014678824025701777026_" class="st0" d="M667.85,1700.92
		c-37.05,85.31-94.67,150.82-172.87,196.52c-78.2,45.7-141.88,31.52-191.04-42.54s-67.5-146.8-55.02-218.21
		c12.48-71.42,56.09-133.54,130.84-186.37s150.71-45.6,227.89,21.69C684.83,1539.3,704.9,1615.6,667.85,1700.92z"/>
	<path id="blob_00000036964823811626295160000012312769385964853418_" class="st0" d="M801.35,1999.85
		c-13.37,30.79-34.17,54.44-62.4,70.93c-28.22,16.49-51.21,11.38-68.95-15.35c-17.74-26.73-24.37-52.99-19.86-78.76
		c4.5-25.78,20.25-48.2,47.23-67.27c26.98-19.07,54.4-16.46,82.26,7.83S814.72,1969.06,801.35,1999.85z"/>
	<path id="blob_00000075861249226740854140000015713446355248099251_" class="st0" d="M2903.81,1746.88
		c40.85,16.53,57.19,46,49.02,88.41c-8.17,42.4-28.59,68.96-61.27,79.65c-32.68,10.7-66.82,11.48-102.41,2.33
		c-35.6-9.14-50.18-32.29-43.77-69.44c6.42-37.15,24.22-67.4,53.39-90.74C2827.95,1733.75,2862.96,1730.35,2903.81,1746.88z"/>
	<path id="blob_00000181083957168872636470000006393998937087313076_" class="st0" d="M820.72,135.78
		c77.41,8.91,119.15,51.43,125.23,127.55c6.08,76.12-16.21,131-66.86,164.64c-50.65,33.64-108.46,51.07-173.43,52.28
		s-100.75-31.36-107.34-97.7c-6.58-66.34,9.49-126.28,48.2-179.82S743.31,126.87,820.72,135.78z"/>
</g>
</svg>
